<svg width="32" height="38" viewBox="0 0 32 38" fill="none" xmlns="http://www.w3.org/2000/svg">
<path d="M0 9.31971C0 7.39485 1.37095 5.74295 3.26285 5.38822L27.2628 0.888217C29.7245 0.426657 32 2.31515 32 4.81971V28.6803C32 30.6052 30.629 32.2571 28.7372 32.6118L4.73716 37.1118C2.2755 37.5733 0 35.6848 0 33.1803V9.31971Z" fill="url(#paint0_linear_28_65)"/>
<path d="M12.6667 19.8333L15.1667 22.3333L19.3333 16.5M26 19C26 20.4089 25.3 21.6556 24.23 22.4089C24.3453 23.0675 24.3001 23.7442 24.0984 24.3817C23.8967 25.0192 23.5443 25.5987 23.0711 26.0711C22.5987 26.5443 22.0192 26.8967 21.3817 27.0984C20.7442 27.3001 20.0675 27.3453 19.4089 27.23C19.0247 27.7772 18.5143 28.2238 17.9209 28.5319C17.3275 28.84 16.6686 29.0005 16 29C14.5911 29 13.3444 28.3 12.5911 27.23C11.9325 27.3452 11.2558 27.3 10.6183 27.0983C9.98085 26.8966 9.40135 26.5442 8.92889 26.0711C8.45569 25.5987 8.10331 25.0192 7.90158 24.3817C7.69985 23.7442 7.65472 23.0675 7.77 22.4089C7.2228 22.0247 6.77625 21.5143 6.46814 20.9209C6.16004 20.3275 5.99946 19.6686 6 19C6 17.5911 6.7 16.3444 7.77 15.5911C7.65472 14.9325 7.69985 14.2558 7.90158 13.6183C8.10331 12.9808 8.45569 12.4013 8.92889 11.9289C9.40135 11.4558 9.98085 11.1034 10.6183 10.9017C11.2558 10.7 11.9325 10.6548 12.5911 10.77C12.9754 10.2229 13.4858 9.77636 14.0792 9.46827C14.6725 9.16017 15.3314 8.99955 16 9C17.4089 9 18.6556 9.7 19.4089 10.77C20.0675 10.6548 20.7442 10.7 21.3817 10.9017C22.0192 11.1034 22.5986 11.4558 23.0711 11.9289C23.5442 12.4014 23.8966 12.9808 24.0983 13.6183C24.3 14.2558 24.3452 14.9325 24.23 15.5911C24.7772 15.9753 25.2238 16.4857 25.5319 17.0791C25.84 17.6725 26.0005 18.3314 26 19Z" stroke="white" stroke-width="1.5" stroke-linecap="round" stroke-linejoin="round"/>
<defs>
<linearGradient id="paint0_linear_28_65" x1="1.19209e-07" y1="19" x2="32" y2="19" gradientUnits="userSpaceOnUse">
<stop stop-color="#0EA5E9"/>
<stop offset="1" stop-color="#2DD4BF"/>
</linearGradient>
</defs>
</svg>
