<svg width="128" height="128" viewBox="0 0 128 128" fill="none" xmlns="http://www.w3.org/2000/svg">
<rect width="128" height="128" rx="64" fill="#0EA5E9"/>
<path d="M48 68L60 80L80 52M112 64C112 70.3035 110.758 76.5452 108.346 82.3688C105.934 88.1924 102.398 93.4839 97.9411 97.9411C93.4839 102.398 88.1924 105.934 82.3688 108.346C76.5452 110.758 70.3035 112 64 112C57.6966 112 51.4548 110.758 45.6312 108.346C39.8076 105.934 34.5161 102.398 30.0589 97.9411C25.6017 93.4839 22.066 88.1924 19.6538 82.3688C17.2416 76.5452 16 70.3035 16 64C16 51.2696 21.0571 39.0606 30.0589 30.0589C39.0606 21.0571 51.2696 16 64 16C76.7304 16 88.9394 21.0571 97.9411 30.0589C106.943 39.0606 112 51.2696 112 64Z" fill="#0EA5E9"/>
<path d="M48 68L60 80L80 52M112 64C112 70.3035 110.758 76.5452 108.346 82.3688C105.934 88.1924 102.398 93.4839 97.9411 97.9411C93.4839 102.398 88.1924 105.934 82.3688 108.346C76.5452 110.758 70.3035 112 64 112C57.6966 112 51.4548 110.758 45.6312 108.346C39.8076 105.934 34.5161 102.398 30.0589 97.9411C25.6017 93.4839 22.066 88.1924 19.6538 82.3688C17.2416 76.5452 16 70.3035 16 64C16 51.2696 21.0571 39.0606 30.0589 30.0589C39.0606 21.0571 51.2696 16 64 16C76.7304 16 88.9394 21.0571 97.9411 30.0589C106.943 39.0606 112 51.2696 112 64Z" stroke="white" stroke-width="8" stroke-linecap="round" stroke-linejoin="round"/>
</svg>
